<mxfile host="app.diagrams.net" modified="2024-01-24T12:05:26.552Z" agent="Mozilla/5.0 (Macintosh; Intel Mac OS X 10_15_7) AppleWebKit/537.36 (KHTML, like Gecko) Chrome/120.0.0.0 Whale/3.24.223.18 Safari/537.36" etag="XBj_cvoEIBrYFpijDzzx" version="22.1.21" type="github">
  <diagram name="페이지-1" id="mkhhxJsGzN1-1RJD6tzv">
    <mxGraphModel dx="1548" dy="997" grid="1" gridSize="10" guides="1" tooltips="1" connect="1" arrows="1" fold="1" page="1" pageScale="1" pageWidth="1169" pageHeight="827" math="0" shadow="0">
      <root>
        <mxCell id="0" />
        <mxCell id="1" parent="0" />
      </root>
    </mxGraphModel>
  </diagram>
</mxfile>
